# xmcd
#
# Track frame offsets:
#	150
#	18580
#	36485
#	55092
#	74547
#	90775
#	109865
#	127990
#	143685
#	161092
#	183347
#
# Disc length: 2685 seconds
#
# Revision: 5
# Processed by: cddbd v1.5.2PL0 Copyright (c) Steve Scherf et al.
# Submitted via: EasyCDDAExtractor 15.3.0.1
#
DISCID=910a7b0b
DTITLE=Melina Leon - Baño De Luna
DYEAR=2000
DGENRE=Latin
TTITLE0=Baño De Luna
TTITLE1=Seras
TTITLE2=Tu Amor
TTITLE3=Siento
TTITLE4=Cachito De Esperanza
TTITLE5=Demasiado Mujer
TTITLE6=El Mensaje
TTITLE7=Mala Vida
TTITLE8=Como Aguja En Un Pajar
TTITLE9=Cuando Una Mujer (Ballad)
TTITLE10=Baño De Luna (Pop Version)
EXTD=
EXTT0=
EXTT1=
EXTT2=
EXTT3=
EXTT4=
EXTT5=
EXTT6=
EXTT7=
EXTT8=
EXTT9=
EXTT10=
PLAYORDER=
